<svg width="24" height="24" viewBox="0 0 24 24" fill="none" xmlns="http://www.w3.org/2000/svg">
<path d="M12 15C13.6569 15 15 13.6569 15 12C15 10.3431 13.6569 9 12 9C10.3431 9 9 10.3431 9 12C9 13.6569 10.3431 15 12 15Z" stroke="#155dfc" stroke-width="2" stroke-linecap="round" stroke-linejoin="round"/>
<path d="M19.4 15L21.4 16.1C21.6 16.2 21.7 16.5 21.6 16.7L20.6 18.5C20.5 18.7 20.2 18.8 20 18.7L18 17.6C17.6 17.9 17.1 18.2 16.6 18.4L16.3 20.6C16.3 20.8 16.1 21 15.8 21H13.8C13.6 21 13.4 20.8 13.3 20.6L13 18.4C12.5 18.2 12 17.9 11.6 17.6L9.6 18.7C9.4 18.8 9.1 18.7 9 18.5L8 16.7C7.9 16.5 8 16.2 8.2 16.1L10.2 15C10.1 14.5 10 14 10 13.5V10.5C10 10 10.1 9.5 10.2 9L8.2 7.9C8 7.8 7.9 7.5 8 7.3L9 5.5C9.1 5.3 9.4 5.2 9.6 5.3L11.6 6.4C12 6.1 12.5 5.8 13 5.6L13.3 3.4C13.3 3.2 13.5 3 13.8 3H15.8C16 3 16.2 3.2 16.3 3.4L16.6 5.6C17.1 5.8 17.6 6.1 18 6.4L20 5.3C20.2 5.2 20.5 5.3 20.6 5.5L21.6 7.3C21.7 7.5 21.6 7.8 21.4 7.9L19.4 9C19.5 9.5 19.6 10 19.6 10.5V13.5C19.6 14 19.5 14.5 19.4 15Z" stroke="#155dfc" stroke-width="2" stroke-linecap="round" stroke-linejoin="round"/>
<path d="M4.5 9L2.5 7.9C2.3 7.8 2.2 7.5 2.3 7.3L3.3 5.5C3.4 5.3 3.7 5.2 3.9 5.3L5.9 6.4C6.3 6.1 6.8 5.8 7.3 5.6L7.6 3.4C7.6 3.2 7.8 3 8.1 3H10.1C10.3 3 10.5 3.2 10.6 3.4L10.9 5.6C11.4 5.8 11.9 6.1 12.3 6.4L14.3 5.3C14.5 5.2 14.8 5.3 14.9 5.5L15.9 7.3C16 7.5 15.9 7.8 15.7 7.9L13.7 9C13.8 9.5 13.9 10 13.9 10.5V13.5C13.9 14 13.8 14.5 13.7 15L15.7 16.1C15.9 16.2 16 16.5 15.9 16.7L14.9 18.5C14.8 18.7 14.5 18.8 14.3 18.7L12.3 17.6C11.9 17.9 11.4 18.2 10.9 18.4L10.6 20.6C10.6 20.8 10.4 21 10.1 21H8.1C7.8 21 7.6 20.8 7.6 20.6L7.3 18.4C6.8 18.2 6.3 17.9 5.9 17.6L3.9 18.7C3.7 18.8 3.4 18.7 3.3 18.5L2.3 16.7C2.2 16.5 2.3 16.2 2.5 16.1L4.5 15" stroke="#155dfc" stroke-width="2" stroke-linecap="round" stroke-linejoin="round"/>
</svg>
