<svg xmlns="http://www.w3.org/2000/svg" width="24" height="24" viewBox="0 0 24 24" fill="none" stroke="#64748b" stroke-width="2" stroke-linecap="round" stroke-linejoin="round"><path d="M4.8 2.3c0 .5.2 2.5.5 3 .3.7.7 1.3 1.2 1.9 1 1 2.3 1.3 3.5 1.3s2.5-.3 3.5-1.3c.5-.6.9-1.2 1.2-1.9.3-.5.5-2.5.5-3"/><path d="M8.8 8.5v3.3c0 2 1.1 3.4 3.2 3.4s3.2-1.4 3.2-3.4V8.5"/><circle cx="17" cy="19" r="4"/><path d="M17 17v4"/><path d="M15 19h4"/><path d="M15.6 17.6l2.8 2.8"/><path d="M18.4 17.6l-2.8 2.8"/></svg>
