<svg width="24" height="24" viewBox="0 0 24 24" fill="none" xmlns="http://www.w3.org/2000/svg">
  <path d="M20 21C20 19.605 20 18.9076 19.7467 18.3591C19.467 17.7541 18.979 17.2661 18.3741 16.9864C17.8256 16.7331 17.1281 16.7331 15.7331 16.7331H8.26687C6.87186 16.7331 6.17435 16.7331 5.62587 16.9864C5.02089 17.2661 4.53298 17.7541 4.25333 18.3591C4 18.9076 4 19.605 4 21" stroke="#94a3b8" stroke-width="2" stroke-linecap="round" stroke-linejoin="round"/>
  <path d="M12 13C14.7614 13 17 10.7614 17 8C17 5.23858 14.7614 3 12 3C9.23858 3 7 5.23858 7 8C7 10.7614 9.23858 13 12 13Z" stroke="#94a3b8" stroke-width="2" stroke-linecap="round" stroke-linejoin="round"/>
</svg>
